# Blender v2.79 (sub 0) OBJ File: 'Archway4Final.blend'
# www.blender.org
v -0.752962 0.000000 0.311770
v -0.752961 -0.000000 -5.404728
v -0.752962 0.000000 -0.311770
v -0.752961 -0.000000 -4.781188
v 0.752962 0.000000 0.311770
v 0.752963 0.000000 -5.404728
v 0.752962 0.000000 -0.311770
v 0.752963 0.000000 -4.781188
v -0.752962 0.557617 0.256850
v -0.752962 1.093805 0.094199
v -0.752962 1.587958 -0.169932
v -0.752962 2.021087 -0.525392
v -0.752962 2.376548 -0.958521
v -0.752962 2.640678 -1.452674
v -0.752962 2.803329 -1.988863
v -0.752962 2.858249 -2.546479
v -0.752962 2.803329 -3.104096
v -0.752962 2.640678 -3.640284
v -0.752962 2.376547 -4.134438
v -0.752962 2.021087 -4.567566
v -0.752962 1.587958 -4.923027
v -0.752962 1.093804 -5.187157
v -0.752962 0.557617 -5.349808
v -0.752962 0.435970 -4.738249
v -0.752962 0.855186 -4.611081
v -0.752962 1.241538 -4.404572
v -0.752962 1.580178 -4.126657
v -0.752962 1.858092 -3.788017
v -0.752962 2.064602 -3.401665
v -0.752962 2.191769 -2.982449
v -0.752962 2.234709 -2.546479
v -0.752962 2.191770 -2.110509
v -0.752962 2.064602 -1.691293
v -0.752962 1.858093 -1.304941
v -0.752962 1.580178 -0.966301
v -0.752962 1.241538 -0.688387
v -0.752962 0.855186 -0.481877
v -0.752962 0.435970 -0.354710
v 0.752963 0.435970 -4.738249
v 0.752963 0.855186 -4.611081
v 0.752962 1.241538 -4.404572
v 0.752962 1.580178 -4.126657
v 0.752962 1.858092 -3.788017
v 0.752962 2.064602 -3.401665
v 0.752962 2.191769 -2.982449
v 0.752962 2.234709 -2.546479
v 0.752962 2.191770 -2.110509
v 0.752962 2.064602 -1.691293
v 0.752962 1.858093 -1.304941
v 0.752962 1.580178 -0.966301
v 0.752962 1.241538 -0.688387
v 0.752962 0.855186 -0.481877
v 0.752962 0.435970 -0.354710
v 0.752963 0.557617 -5.349808
v 0.752962 1.093804 -5.187157
v 0.752962 1.587958 -4.923027
v 0.752962 2.021087 -4.567566
v 0.752962 2.376547 -4.134438
v 0.752962 2.640678 -3.640284
v 0.752962 2.803329 -3.104096
v 0.752962 2.858249 -2.546479
v 0.752962 2.803329 -1.988863
v 0.752962 2.640678 -1.452674
v 0.752962 2.376548 -0.958521
v 0.752962 2.021087 -0.525392
v 0.752962 1.587958 -0.169932
v 0.752962 1.093805 0.094199
v 0.752962 0.557617 0.256850
v 0.000000 0.000000 -0.311770
v 0.000001 0.000000 -4.781188
v 0.000000 0.000000 0.311770
v 0.000001 -0.000000 -5.404728
v -0.000000 0.557617 0.256850
v -0.000000 1.093805 0.094199
v -0.000000 1.587958 -0.169932
v -0.000000 2.021087 -0.525392
v 0.000000 2.376548 -0.958521
v 0.000000 2.640678 -1.452674
v 0.000000 2.803329 -1.988863
v 0.000000 2.858249 -2.546479
v 0.000000 2.803329 -3.104096
v 0.000000 2.640678 -3.640284
v 0.000000 2.376547 -4.134438
v 0.000000 2.021087 -4.567566
v 0.000000 1.587958 -4.923027
v 0.000000 1.093804 -5.187157
v 0.000001 0.557617 -5.349808
v 0.000000 0.435970 -0.354710
v 0.000000 0.855186 -0.481877
v 0.000000 1.241538 -0.688387
v 0.000000 1.580178 -0.966301
v 0.000000 1.858093 -1.304941
v 0.000000 2.064602 -1.691293
v 0.000000 2.191770 -2.110509
v 0.000000 2.234709 -2.546479
v 0.000000 2.191769 -2.982449
v 0.000000 2.064602 -3.401665
v 0.000000 1.858092 -3.788017
v 0.000000 1.580178 -4.126657
v 0.000000 1.241538 -4.404572
v 0.000000 0.855186 -4.611081
v 0.000001 0.435970 -4.738249
v -0.674012 0.000000 -0.311770
v -0.674011 -0.000000 -5.404728
v -0.674012 0.557617 0.256850
v -0.674012 1.093805 0.094199
v -0.674012 1.587958 -0.169932
v -0.674012 2.021087 -0.525392
v -0.674012 2.376548 -0.958521
v -0.674012 2.640678 -1.452674
v -0.674012 2.803329 -1.988863
v -0.674012 2.858249 -2.546479
v -0.674012 2.803329 -3.104096
v -0.674012 2.640678 -3.640284
v -0.674012 2.376547 -4.134438
v -0.674012 2.021087 -4.567566
v -0.674012 1.587958 -4.923027
v -0.674012 1.093804 -5.187157
v -0.674011 0.557617 -5.349808
v -0.674011 -0.000000 -4.781188
v -0.674012 0.000000 0.311770
v -0.674012 0.435970 -0.354710
v -0.674012 0.855186 -0.481877
v -0.674012 1.241538 -0.688387
v -0.674012 1.580178 -0.966301
v -0.674012 1.858093 -1.304941
v -0.674012 2.064602 -1.691293
v -0.674012 2.191770 -2.110509
v -0.674012 2.234709 -2.546479
v -0.674012 2.191769 -2.982449
v -0.674012 2.064602 -3.401665
v -0.674012 1.858092 -3.788017
v -0.674012 1.580178 -4.126657
v -0.674012 1.241538 -4.404572
v -0.674011 0.855186 -4.611081
v -0.674011 0.435970 -4.738249
v 0.678606 0.000000 -4.781188
v 0.678605 0.000000 0.311770
v 0.678605 0.435970 -0.354710
v 0.678605 0.855186 -0.481877
v 0.678605 1.241538 -0.688387
v 0.678605 1.580178 -0.966301
v 0.678605 1.858093 -1.304941
v 0.678605 2.064602 -1.691293
v 0.678605 2.191770 -2.110509
v 0.678605 2.234709 -2.546479
v 0.678605 2.191769 -2.982449
v 0.678605 2.064602 -3.401665
v 0.678605 1.858092 -3.788017
v 0.678605 1.580178 -4.126657
v 0.678605 1.241538 -4.404572
v 0.678606 0.855186 -4.611081
v 0.678606 0.435970 -4.738249
v 0.678605 0.000000 -0.311770
v 0.678606 0.000000 -5.404728
v 0.678605 0.557617 0.256850
v 0.678605 1.093805 0.094199
v 0.678605 1.587958 -0.169932
v 0.678605 2.021087 -0.525392
v 0.678605 2.376548 -0.958521
v 0.678605 2.640678 -1.452674
v 0.678605 2.803329 -1.988863
v 0.678605 2.858249 -2.546479
v 0.678605 2.803329 -3.104096
v 0.678605 2.640678 -3.640284
v 0.678605 2.376547 -4.134438
v 0.678605 2.021087 -4.567566
v 0.678605 1.587958 -4.923027
v 0.678605 1.093804 -5.187157
v 0.678606 0.557617 -5.349808
vt 0.110142 -1.795150
vt 0.342258 -1.874493
vt 0.342336 -1.801448
vt 0.543157 -1.879943
vt 0.553670 -1.807181
vt 0.543235 -1.806898
vt 0.553592 -1.880227
vt 0.785863 -1.813477
vt 0.357013 1.558355
vt 0.346012 1.631701
vt 0.345934 1.558656
vt 0.554843 -0.711495
vt 0.545660 0.457515
vt 0.544408 -0.711212
vt 0.347265 2.800428
vt 0.357092 1.631401
vt 0.358344 2.800127
vt 0.355918 0.535711
vt 0.344760 0.462965
vt 0.355840 0.462665
vt 0.355996 0.608757
vt 0.344838 0.536012
vt 0.356074 0.681803
vt 0.344917 0.609058
vt 0.356153 0.754849
vt 0.344995 0.682104
vt 0.356231 0.827895
vt 0.345073 0.755150
vt 0.356309 0.900941
vt 0.345151 0.828196
vt 0.356387 0.973987
vt 0.345230 0.901242
vt 0.356466 1.047033
vt 0.345308 0.974287
vt 0.356544 1.120079
vt 0.345386 1.047334
vt 0.356622 1.193125
vt 0.345464 1.120379
vt 0.356701 1.266171
vt 0.345543 1.193426
vt 0.356779 1.339217
vt 0.345621 1.266472
vt 0.356857 1.412263
vt 0.345699 1.339517
vt 0.345856 1.485609
vt 0.345777 1.412563
vt 0.356935 1.485308
vt 0.786958 -0.790842
vt 0.787037 -0.717796
vt 0.554765 -0.784541
vt 0.786880 -0.863887
vt 0.554687 -0.857587
vt 0.786802 -0.936933
vt 0.554609 -0.930632
vt 0.786724 -1.009977
vt 0.554530 -1.003678
vt 0.786645 -1.083023
vt 0.554452 -1.076724
vt 0.786567 -1.156068
vt 0.554374 -1.149770
vt 0.786489 -1.229114
vt 0.554296 -1.222815
vt 0.786411 -1.302159
vt 0.554139 -1.368907
vt 0.554218 -1.295861
vt 0.554061 -1.441952
vt 0.786332 -1.375204
vt 0.553983 -1.514998
vt 0.786254 -1.448250
vt 0.553905 -1.588044
vt 0.786176 -1.521295
vt 0.553827 -1.661089
vt 0.786098 -1.594341
vt 0.553748 -1.734135
vt 0.786020 -1.667386
vt 0.785942 -1.740432
vt 0.544330 -0.784258
vt 0.544252 -0.857303
vt 0.544174 -0.930350
vt 0.544096 -1.003395
vt 0.544017 -1.076441
vt 0.543939 -1.149486
vt 0.543861 -1.222532
vt 0.543783 -1.295578
vt 0.543705 -1.368624
vt 0.543626 -1.441669
vt 0.543548 -1.514715
vt 0.543470 -1.587760
vt 0.543392 -1.660806
vt 0.543314 -1.733852
vt 0.111237 -0.772506
vt 0.343509 -0.705763
vt 0.111315 -0.699460
vt 0.111159 -0.845552
vt 0.343431 -0.778808
vt 0.111080 -0.918598
vt 0.343353 -0.851854
vt 0.111002 -0.991645
vt 0.343274 -0.924899
vt 0.110924 -1.064690
vt 0.343196 -0.997945
vt 0.110846 -1.137736
vt 0.343118 -1.070991
vt 0.110768 -1.210782
vt 0.343040 -1.144037
vt 0.110689 -1.283828
vt 0.342961 -1.217082
vt 0.342805 -1.363174
vt 0.342883 -1.290128
vt 0.110611 -1.356874
vt 0.342727 -1.436219
vt 0.110533 -1.429920
vt 0.342649 -1.509265
vt 0.110455 -1.502966
vt 0.342570 -1.582310
vt 0.110376 -1.576012
vt 0.342492 -1.655356
vt 0.110298 -1.649058
vt 0.342414 -1.728402
vt 0.110220 -1.722104
vt 0.353415 -1.801748
vt 0.448081 -1.731268
vt 0.353494 -1.728703
vt 0.448159 -1.658222
vt 0.353572 -1.655656
vt 0.448238 -1.585177
vt 0.353650 -1.582611
vt 0.448316 -1.512131
vt 0.353728 -1.509565
vt 0.448394 -1.439086
vt 0.353806 -1.436520
vt 0.448472 -1.366040
vt 0.353885 -1.363474
vt 0.448550 -1.292994
vt 0.353963 -1.290428
vt 0.448629 -1.219949
vt 0.354041 -1.217383
vt 0.448707 -1.146903
vt 0.354119 -1.144337
vt 0.448785 -1.073858
vt 0.354197 -1.071292
vt 0.448863 -1.000812
vt 0.354276 -0.998246
vt 0.448942 -0.927766
vt 0.354354 -0.925200
vt 0.449020 -0.854721
vt 0.354432 -0.852154
vt 0.449098 -0.781675
vt 0.354510 -0.779109
vt 0.449176 -0.708630
vt 0.354589 -0.706063
vt 0.546756 1.480156
vt 0.451601 1.555787
vt 0.451523 1.482741
vt 0.546677 1.407110
vt 0.451445 1.409695
vt 0.546599 1.334064
vt 0.451367 1.336649
vt 0.451288 1.263603
vt 0.546521 1.261019
vt 0.451210 1.190557
vt 0.546443 1.187973
vt 0.451132 1.117511
vt 0.546364 1.114927
vt 0.451054 1.044466
vt 0.546286 1.041882
vt 0.450975 0.971421
vt 0.546208 0.968836
vt 0.450897 0.898374
vt 0.546130 0.895790
vt 0.450819 0.825328
vt 0.546051 0.822744
vt 0.450741 0.752282
vt 0.545973 0.749698
vt 0.450662 0.679237
vt 0.545895 0.676653
vt 0.450584 0.606191
vt 0.545817 0.603607
vt 0.450506 0.533145
vt 0.545738 0.530561
vt 0.450428 0.460099
vt 0.452932 2.797560
vt 0.546912 1.626248
vt 0.548164 2.794975
vt 0.546834 1.553202
vt 0.451680 1.628833
vt 0.353337 -1.874794
vt 0.448003 -1.804314
vt 0.557269 1.552918
vt 0.557347 1.625965
vt 0.558599 2.794692
vt 0.556173 0.530278
vt 0.556095 0.457232
vt 0.556252 0.603324
vt 0.556330 0.676369
vt 0.556408 0.749415
vt 0.556486 0.822461
vt 0.556565 0.895507
vt 0.556643 0.968553
vt 0.556721 1.041598
vt 0.556799 1.114644
vt 0.556877 1.187689
vt 0.556956 1.260736
vt 0.557034 1.333781
vt 0.557112 1.406827
vt 0.557190 1.479872
vt 0.447925 -1.877360
vt 0.110064 -1.868196
vt 0.785785 -1.886522
vn -1.0000 -0.0000 -0.0000
vn 0.0000 -0.0980 0.9952
vn 1.0000 0.0000 0.0000
vn 0.0000 0.0980 -0.9952
vn 0.0000 -1.0000 0.0000
vn 0.0000 0.0980 0.9952
vn 0.0000 0.2903 0.9569
vn 0.0000 0.4714 0.8819
vn 0.0000 0.6344 0.7730
vn 0.0000 0.7730 0.6344
vn 0.0000 0.8819 0.4714
vn 0.0000 0.9569 0.2903
vn 0.0000 0.9952 0.0980
vn 0.0000 0.9952 -0.0980
vn 0.0000 0.9569 -0.2903
vn 0.0000 0.8819 -0.4714
vn 0.0000 0.7730 -0.6344
vn 0.0000 0.6344 -0.7730
vn 0.0000 0.4714 -0.8819
vn 0.0000 0.2903 -0.9569
vn 0.0000 -0.0980 -0.9952
vn 0.0000 -0.2903 -0.9569
vn 0.0000 -0.4714 -0.8819
vn 0.0000 -0.6344 -0.7730
vn 0.0000 -0.7730 -0.6344
vn 0.0000 -0.8819 -0.4714
vn 0.0000 -0.9569 -0.2903
vn 0.0000 -0.9952 -0.0980
vn 0.0000 -0.9952 0.0980
vn 0.0000 -0.9569 0.2903
vn 0.0000 -0.8819 0.4714
vn 0.0000 -0.7730 0.6344
vn 0.0000 -0.6344 0.7730
vn 0.0000 -0.4714 0.8819
vn 0.0000 -0.2903 0.9569
s off
f 23/1/1 4/2/1 24/3/1
f 137/4/2 39/5/2 153/6/2
f 8/7/3 54/8/3 39/5/3
f 119/9/4 2/10/4 23/11/4
f 7/12/5 138/13/5 154/14/5
f 4/15/5 104/16/5 120/17/5
f 105/18/6 1/19/6 121/20/6
f 106/21/7 9/22/7 105/18/7
f 107/23/8 10/24/8 106/21/8
f 108/25/9 11/26/9 107/23/9
f 109/27/10 12/28/10 108/25/10
f 110/29/11 13/30/11 109/27/11
f 111/31/12 14/32/12 110/29/12
f 112/33/13 15/34/13 111/31/13
f 113/35/14 16/36/14 112/33/14
f 114/37/15 17/38/15 113/35/15
f 115/39/16 18/40/16 114/37/16
f 116/41/17 19/42/17 115/39/17
f 117/43/18 20/44/18 116/41/18
f 117/43/19 22/45/19 21/46/19
f 119/9/20 22/45/20 118/47/20
f 7/12/3 68/48/3 5/49/3
f 53/50/3 67/51/3 68/48/3
f 52/52/3 66/53/3 67/51/3
f 51/54/3 65/55/3 66/53/3
f 50/56/3 64/57/3 65/55/3
f 49/58/3 63/59/3 64/57/3
f 48/60/3 62/61/3 63/59/3
f 47/62/3 61/63/3 62/61/3
f 45/64/3 61/63/3 46/65/3
f 44/66/3 60/67/3 45/64/3
f 43/68/3 59/69/3 44/66/3
f 42/70/3 58/71/3 43/68/3
f 41/72/3 57/73/3 42/70/3
f 40/74/3 56/75/3 41/72/3
f 39/5/3 55/76/3 40/74/3
f 139/77/21 7/12/21 154/14/21
f 140/78/22 53/50/22 139/77/22
f 141/79/23 52/52/23 140/78/23
f 142/80/24 51/54/24 141/79/24
f 143/81/25 50/56/25 142/80/25
f 144/82/26 49/58/26 143/81/26
f 145/83/27 48/60/27 144/82/27
f 146/84/28 47/62/28 145/83/28
f 147/85/29 46/65/29 146/84/29
f 148/86/30 45/64/30 147/85/30
f 149/87/31 44/66/31 148/86/31
f 150/88/32 43/68/32 149/87/32
f 151/89/33 42/70/33 150/88/33
f 152/90/34 41/72/34 151/89/34
f 153/6/35 40/74/35 152/90/35
f 9/91/1 3/92/1 1/93/1
f 10/94/1 38/95/1 9/91/1
f 11/96/1 37/97/1 10/94/1
f 12/98/1 36/99/1 11/96/1
f 13/100/1 35/101/1 12/98/1
f 14/102/1 34/103/1 13/100/1
f 15/104/1 33/105/1 14/102/1
f 16/106/1 32/107/1 15/104/1
f 16/106/1 30/108/1 31/109/1
f 17/110/1 29/111/1 30/108/1
f 18/112/1 28/113/1 29/111/1
f 19/114/1 27/115/1 28/113/1
f 20/116/1 26/117/1 27/115/1
f 21/118/1 25/119/1 26/117/1
f 22/120/1 24/3/1 25/119/1
f 136/121/35 101/122/35 135/123/35
f 135/123/34 100/124/34 134/125/34
f 134/125/33 99/126/33 133/127/33
f 133/127/32 98/128/32 132/129/32
f 132/129/31 97/130/31 131/131/31
f 131/131/30 96/132/30 130/133/30
f 130/133/29 95/134/29 129/135/29
f 129/135/28 94/136/28 128/137/28
f 128/137/27 93/138/27 127/139/27
f 127/139/26 92/140/26 126/141/26
f 126/141/25 91/142/25 125/143/25
f 125/143/24 90/144/24 124/145/24
f 124/145/23 89/146/23 123/147/23
f 123/147/22 88/148/22 122/149/22
f 122/149/21 69/150/21 103/151/21
f 169/152/20 87/153/20 86/154/20
f 168/155/19 86/154/19 85/156/19
f 167/157/18 85/156/18 84/158/18
f 167/157/17 83/159/17 166/160/17
f 166/160/16 82/161/16 165/162/16
f 165/162/15 81/163/15 164/164/15
f 164/164/14 80/165/14 163/166/14
f 163/166/13 79/167/13 162/168/13
f 162/168/12 78/169/12 161/170/12
f 161/170/11 77/171/11 160/172/11
f 160/172/10 76/173/10 159/174/10
f 159/174/9 75/175/9 158/176/9
f 158/176/8 74/177/8 157/178/8
f 157/178/7 73/179/7 156/180/7
f 156/180/6 71/181/6 138/13/6
f 70/182/5 155/183/5 137/184/5
f 69/150/5 121/20/5 103/151/5
f 170/185/4 72/186/4 87/153/4
f 120/187/2 102/188/2 136/121/2
f 4/2/2 136/121/2 24/3/2
f 103/151/5 1/19/5 3/92/5
f 38/95/21 103/151/21 3/92/21
f 37/97/22 122/149/22 38/95/22
f 36/99/23 123/147/23 37/97/23
f 35/101/24 124/145/24 36/99/24
f 34/103/25 125/143/25 35/101/25
f 33/105/26 126/141/26 34/103/26
f 32/107/27 127/139/27 33/105/27
f 31/109/28 128/137/28 32/107/28
f 30/108/29 129/135/29 31/109/29
f 29/111/30 130/133/30 30/108/30
f 28/113/31 131/131/31 29/111/31
f 27/115/32 132/129/32 28/113/32
f 26/117/33 133/127/33 27/115/33
f 25/119/34 134/125/34 26/117/34
f 24/3/35 135/123/35 25/119/35
f 86/154/20 119/9/20 118/47/20
f 86/154/19 117/43/19 85/156/19
f 85/156/18 116/41/18 84/158/18
f 84/158/17 115/39/17 83/159/17
f 83/159/16 114/37/16 82/161/16
f 81/163/15 114/37/15 113/35/15
f 81/163/14 112/33/14 80/165/14
f 80/165/13 111/31/13 79/167/13
f 79/167/12 110/29/12 78/169/12
f 78/169/11 109/27/11 77/171/11
f 77/171/10 108/25/10 76/173/10
f 76/173/9 107/23/9 75/175/9
f 75/175/8 106/21/8 74/177/8
f 74/177/7 105/18/7 73/179/7
f 73/179/6 121/20/6 71/181/6
f 120/17/5 72/186/5 70/182/5
f 72/186/4 119/9/4 87/153/4
f 54/189/4 155/183/4 170/185/4
f 137/184/5 6/190/5 8/191/5
f 68/192/6 138/13/6 5/193/6
f 67/194/7 156/180/7 68/192/7
f 66/195/8 157/178/8 67/194/8
f 65/196/9 158/176/9 66/195/9
f 64/197/10 159/174/10 65/196/10
f 63/198/11 160/172/11 64/197/11
f 62/199/12 161/170/12 63/198/12
f 61/200/13 162/168/13 62/199/13
f 60/201/14 163/166/14 61/200/14
f 59/202/15 164/164/15 60/201/15
f 58/203/16 165/162/16 59/202/16
f 57/204/17 166/160/17 58/203/17
f 56/205/18 167/157/18 57/204/18
f 55/206/19 168/155/19 56/205/19
f 54/189/20 169/152/20 55/206/20
f 102/188/35 152/90/35 101/122/35
f 101/122/34 151/89/34 100/124/34
f 100/124/33 150/88/33 99/126/33
f 99/126/32 149/87/32 98/128/32
f 98/128/31 148/86/31 97/130/31
f 97/130/30 147/85/30 96/132/30
f 96/132/29 146/84/29 95/134/29
f 95/134/28 145/83/28 94/136/28
f 94/136/27 144/82/27 93/138/27
f 93/138/26 143/81/26 92/140/26
f 92/140/25 142/80/25 91/142/25
f 91/142/24 141/79/24 90/144/24
f 90/144/23 140/78/23 89/146/23
f 88/148/22 140/78/22 139/77/22
f 88/148/21 154/14/21 69/150/21
f 154/14/5 71/181/5 69/150/5
f 70/207/2 153/6/2 102/188/2
f 23/1/1 2/208/1 4/2/1
f 137/4/2 8/7/2 39/5/2
f 8/7/3 6/209/3 54/8/3
f 119/9/4 104/16/4 2/10/4
f 7/12/5 5/193/5 138/13/5
f 4/15/5 2/10/5 104/16/5
f 105/18/6 9/22/6 1/19/6
f 106/21/7 10/24/7 9/22/7
f 107/23/8 11/26/8 10/24/8
f 108/25/9 12/28/9 11/26/9
f 109/27/10 13/30/10 12/28/10
f 110/29/11 14/32/11 13/30/11
f 111/31/12 15/34/12 14/32/12
f 112/33/13 16/36/13 15/34/13
f 113/35/14 17/38/14 16/36/14
f 114/37/15 18/40/15 17/38/15
f 115/39/16 19/42/16 18/40/16
f 116/41/17 20/44/17 19/42/17
f 117/43/18 21/46/18 20/44/18
f 117/43/19 118/47/19 22/45/19
f 119/9/20 23/11/20 22/45/20
f 7/12/3 53/50/3 68/48/3
f 53/50/3 52/52/3 67/51/3
f 52/52/3 51/54/3 66/53/3
f 51/54/3 50/56/3 65/55/3
f 50/56/3 49/58/3 64/57/3
f 49/58/3 48/60/3 63/59/3
f 48/60/3 47/62/3 62/61/3
f 47/62/3 46/65/3 61/63/3
f 45/64/3 60/67/3 61/63/3
f 44/66/3 59/69/3 60/67/3
f 43/68/3 58/71/3 59/69/3
f 42/70/3 57/73/3 58/71/3
f 41/72/3 56/75/3 57/73/3
f 40/74/3 55/76/3 56/75/3
f 39/5/3 54/8/3 55/76/3
f 139/77/21 53/50/21 7/12/21
f 140/78/22 52/52/22 53/50/22
f 141/79/23 51/54/23 52/52/23
f 142/80/24 50/56/24 51/54/24
f 143/81/25 49/58/25 50/56/25
f 144/82/26 48/60/26 49/58/26
f 145/83/27 47/62/27 48/60/27
f 146/84/28 46/65/28 47/62/28
f 147/85/29 45/64/29 46/65/29
f 148/86/30 44/66/30 45/64/30
f 149/87/31 43/68/31 44/66/31
f 150/88/32 42/70/32 43/68/32
f 151/89/33 41/72/33 42/70/33
f 152/90/34 40/74/34 41/72/34
f 153/6/35 39/5/35 40/74/35
f 9/91/1 38/95/1 3/92/1
f 10/94/1 37/97/1 38/95/1
f 11/96/1 36/99/1 37/97/1
f 12/98/1 35/101/1 36/99/1
f 13/100/1 34/103/1 35/101/1
f 14/102/1 33/105/1 34/103/1
f 15/104/1 32/107/1 33/105/1
f 16/106/1 31/109/1 32/107/1
f 16/106/1 17/110/1 30/108/1
f 17/110/1 18/112/1 29/111/1
f 18/112/1 19/114/1 28/113/1
f 19/114/1 20/116/1 27/115/1
f 20/116/1 21/118/1 26/117/1
f 21/118/1 22/120/1 25/119/1
f 22/120/1 23/1/1 24/3/1
f 136/121/35 102/188/35 101/122/35
f 135/123/34 101/122/34 100/124/34
f 134/125/33 100/124/33 99/126/33
f 133/127/32 99/126/32 98/128/32
f 132/129/31 98/128/31 97/130/31
f 131/131/30 97/130/30 96/132/30
f 130/133/29 96/132/29 95/134/29
f 129/135/28 95/134/28 94/136/28
f 128/137/27 94/136/27 93/138/27
f 127/139/26 93/138/26 92/140/26
f 126/141/25 92/140/25 91/142/25
f 125/143/24 91/142/24 90/144/24
f 124/145/23 90/144/23 89/146/23
f 123/147/22 89/146/22 88/148/22
f 122/149/21 88/148/21 69/150/21
f 169/152/20 170/185/20 87/153/20
f 168/155/19 169/152/19 86/154/19
f 167/157/18 168/155/18 85/156/18
f 167/157/17 84/158/17 83/159/17
f 166/160/16 83/159/16 82/161/16
f 165/162/15 82/161/15 81/163/15
f 164/164/14 81/163/14 80/165/14
f 163/166/13 80/165/13 79/167/13
f 162/168/12 79/167/12 78/169/12
f 161/170/11 78/169/11 77/171/11
f 160/172/10 77/171/10 76/173/10
f 159/174/9 76/173/9 75/175/9
f 158/176/8 75/175/8 74/177/8
f 157/178/7 74/177/7 73/179/7
f 156/180/6 73/179/6 71/181/6
f 70/182/5 72/186/5 155/183/5
f 69/150/5 71/181/5 121/20/5
f 170/185/4 155/183/4 72/186/4
f 120/187/2 70/207/2 102/188/2
f 4/2/2 120/187/2 136/121/2
f 103/151/5 121/20/5 1/19/5
f 38/95/21 122/149/21 103/151/21
f 37/97/22 123/147/22 122/149/22
f 36/99/23 124/145/23 123/147/23
f 35/101/24 125/143/24 124/145/24
f 34/103/25 126/141/25 125/143/25
f 33/105/26 127/139/26 126/141/26
f 32/107/27 128/137/27 127/139/27
f 31/109/28 129/135/28 128/137/28
f 30/108/29 130/133/29 129/135/29
f 29/111/30 131/131/30 130/133/30
f 28/113/31 132/129/31 131/131/31
f 27/115/32 133/127/32 132/129/32
f 26/117/33 134/125/33 133/127/33
f 25/119/34 135/123/34 134/125/34
f 24/3/35 136/121/35 135/123/35
f 86/154/20 87/153/20 119/9/20
f 86/154/19 118/47/19 117/43/19
f 85/156/18 117/43/18 116/41/18
f 84/158/17 116/41/17 115/39/17
f 83/159/16 115/39/16 114/37/16
f 81/163/15 82/161/15 114/37/15
f 81/163/14 113/35/14 112/33/14
f 80/165/13 112/33/13 111/31/13
f 79/167/12 111/31/12 110/29/12
f 78/169/11 110/29/11 109/27/11
f 77/171/10 109/27/10 108/25/10
f 76/173/9 108/25/9 107/23/9
f 75/175/8 107/23/8 106/21/8
f 74/177/7 106/21/7 105/18/7
f 73/179/6 105/18/6 121/20/6
f 120/17/5 104/16/5 72/186/5
f 72/186/4 104/16/4 119/9/4
f 54/189/4 6/190/4 155/183/4
f 137/184/5 155/183/5 6/190/5
f 68/192/6 156/180/6 138/13/6
f 67/194/7 157/178/7 156/180/7
f 66/195/8 158/176/8 157/178/8
f 65/196/9 159/174/9 158/176/9
f 64/197/10 160/172/10 159/174/10
f 63/198/11 161/170/11 160/172/11
f 62/199/12 162/168/12 161/170/12
f 61/200/13 163/166/13 162/168/13
f 60/201/14 164/164/14 163/166/14
f 59/202/15 165/162/15 164/164/15
f 58/203/16 166/160/16 165/162/16
f 57/204/17 167/157/17 166/160/17
f 56/205/18 168/155/18 167/157/18
f 55/206/19 169/152/19 168/155/19
f 54/189/20 170/185/20 169/152/20
f 102/188/35 153/6/35 152/90/35
f 101/122/34 152/90/34 151/89/34
f 100/124/33 151/89/33 150/88/33
f 99/126/32 150/88/32 149/87/32
f 98/128/31 149/87/31 148/86/31
f 97/130/30 148/86/30 147/85/30
f 96/132/29 147/85/29 146/84/29
f 95/134/28 146/84/28 145/83/28
f 94/136/27 145/83/27 144/82/27
f 93/138/26 144/82/26 143/81/26
f 92/140/25 143/81/25 142/80/25
f 91/142/24 142/80/24 141/79/24
f 90/144/23 141/79/23 140/78/23
f 88/148/22 89/146/22 140/78/22
f 88/148/21 139/77/21 154/14/21
f 154/14/5 138/13/5 71/181/5
f 70/207/2 137/4/2 153/6/2
