# Blender v2.78 (sub 0) OBJ File: ''
# www.blender.org
o Cylinder
v 0.000000 -0.500000 0.000000
v 0.000000 0.500000 0.000000
v 0.000000 -0.500000 -0.500000
v 0.000000 0.500000 -0.500000
v 0.078217 -0.500000 -0.493844
v 0.078217 0.500000 -0.493844
v 0.154509 -0.500000 -0.475528
v 0.154509 0.500000 -0.475528
v 0.226995 -0.500000 -0.445503
v 0.226995 0.500000 -0.445503
v 0.293893 -0.500000 -0.404509
v 0.293893 0.500000 -0.404509
v 0.353553 -0.500000 -0.353553
v 0.353553 0.500000 -0.353553
v 0.404509 -0.500000 -0.293893
v 0.404509 0.500000 -0.293893
v 0.445503 -0.500000 -0.226995
v 0.445503 0.500000 -0.226995
v 0.475528 -0.500000 -0.154508
v 0.475528 0.500000 -0.154508
v 0.493844 -0.500000 -0.078217
v 0.493844 0.500000 -0.078217
v 0.500000 -0.500000 0.000000
v 0.500000 0.500000 0.000000
v 0.493844 -0.500000 0.078217
v 0.493844 0.500000 0.078217
v 0.475528 -0.500000 0.154509
v 0.475528 0.500000 0.154509
v 0.445503 -0.500000 0.226995
v 0.445503 0.500000 0.226995
v 0.404508 -0.500000 0.293893
v 0.404508 0.500000 0.293893
v 0.353553 -0.500000 0.353554
v 0.353553 0.500000 0.353554
v 0.293892 -0.500000 0.404509
v 0.293892 0.500000 0.404509
v 0.226995 -0.500000 0.445503
v 0.226995 0.500000 0.445503
v 0.154508 -0.500000 0.475528
v 0.154508 0.500000 0.475528
v 0.078217 -0.500000 0.493844
v 0.078217 0.500000 0.493844
v -0.000000 -0.500000 0.500000
v -0.000000 0.500000 0.500000
v -0.078218 -0.500000 0.493844
v -0.078218 0.500000 0.493844
v -0.154509 -0.500000 0.475528
v -0.154509 0.500000 0.475528
v -0.226996 -0.500000 0.445503
v -0.226996 0.500000 0.445503
v -0.293893 -0.500000 0.404508
v -0.293893 0.500000 0.404508
v -0.353554 -0.500000 0.353553
v -0.353554 0.500000 0.353553
v -0.404509 -0.500000 0.293892
v -0.404509 0.500000 0.293892
v -0.445504 -0.500000 0.226995
v -0.445504 0.500000 0.226995
v -0.475528 -0.500000 0.154508
v -0.475528 0.500000 0.154508
v -0.493844 -0.500000 0.078217
v -0.493844 0.500000 0.078217
v -0.500000 -0.500000 -0.000001
v -0.500000 0.500000 -0.000001
v -0.493844 -0.500000 -0.078218
v -0.493844 0.500000 -0.078218
v -0.475528 -0.500000 -0.154509
v -0.475528 0.500000 -0.154509
v -0.445503 -0.500000 -0.226996
v -0.445503 0.500000 -0.226996
v -0.404508 -0.500000 -0.293893
v -0.404508 0.500000 -0.293893
v -0.353553 -0.500000 -0.353554
v -0.353553 0.500000 -0.353554
v -0.293892 -0.500000 -0.404509
v -0.293892 0.500000 -0.404509
v -0.226994 -0.500000 -0.445504
v -0.226994 0.500000 -0.445504
v -0.154508 -0.500000 -0.475529
v -0.154508 0.500000 -0.475529
v -0.078216 -0.500000 -0.493844
v -0.078216 0.500000 -0.493844
vt 0.7500 0.2500
vt 0.7500 0.4900
vt 0.7875 0.4870
vt 0.2500 0.2500
vt 0.2875 0.4870
vt 0.2500 0.4900
vt 0.0250 1.0000
vt 0.0000 0.5000
vt 0.0250 0.5000
vt 0.8242 0.4783
vt 0.3242 0.4783
vt 0.0500 1.0000
vt 0.0250 0.5000
vt 0.0500 0.5000
vt 0.8590 0.4638
vt 0.3590 0.4638
vt 0.0750 1.0000
vt 0.0500 0.5000
vt 0.0750 0.5000
vt 0.8911 0.4442
vt 0.3911 0.4442
vt 0.1000 1.0000
vt 0.0750 0.5000
vt 0.1000 0.5000
vt 0.9197 0.4197
vt 0.4197 0.4197
vt 0.1250 1.0000
vt 0.1000 0.5000
vt 0.1250 0.5000
vt 0.9442 0.3911
vt 0.4442 0.3911
vt 0.1500 1.0000
vt 0.1250 0.5000
vt 0.1500 0.5000
vt 0.9638 0.3590
vt 0.4638 0.3590
vt 0.1750 1.0000
vt 0.1500 0.5000
vt 0.1750 0.5000
vt 0.9783 0.3242
vt 0.4783 0.3242
vt 0.2000 1.0000
vt 0.1750 0.5000
vt 0.2000 0.5000
vt 0.9870 0.2875
vt 0.4870 0.2875
vt 0.2250 1.0000
vt 0.2000 0.5000
vt 0.2250 0.5000
vt 0.9900 0.2500
vt 0.4900 0.2500
vt 0.2500 1.0000
vt 0.2250 0.5000
vt 0.2500 0.5000
vt 0.9870 0.2125
vt 0.4870 0.2125
vt 0.2750 1.0000
vt 0.2500 0.5000
vt 0.2750 0.5000
vt 0.9783 0.1758
vt 0.4783 0.1758
vt 0.3000 1.0000
vt 0.2750 0.5000
vt 0.3000 0.5000
vt 0.9638 0.1410
vt 0.4638 0.1410
vt 0.3250 1.0000
vt 0.3000 0.5000
vt 0.3250 0.5000
vt 0.9442 0.1089
vt 0.4442 0.1089
vt 0.3500 1.0000
vt 0.3250 0.5000
vt 0.3500 0.5000
vt 0.9197 0.0803
vt 0.4197 0.0803
vt 0.3750 1.0000
vt 0.3500 0.5000
vt 0.3750 0.5000
vt 0.8911 0.0558
vt 0.3911 0.0558
vt 0.4000 1.0000
vt 0.3750 0.5000
vt 0.4000 0.5000
vt 0.8590 0.0362
vt 0.3590 0.0362
vt 0.4250 1.0000
vt 0.4000 0.5000
vt 0.4250 0.5000
vt 0.8242 0.0217
vt 0.3242 0.0217
vt 0.4500 1.0000
vt 0.4250 0.5000
vt 0.4500 0.5000
vt 0.7875 0.0130
vt 0.2875 0.0130
vt 0.4750 1.0000
vt 0.4500 0.5000
vt 0.4750 0.5000
vt 0.7500 0.0100
vt 0.2500 0.0100
vt 0.5000 1.0000
vt 0.4750 0.5000
vt 0.5000 0.5000
vt 0.7125 0.0130
vt 0.2125 0.0130
vt 0.5250 1.0000
vt 0.5000 0.5000
vt 0.5250 0.5000
vt 0.6758 0.0217
vt 0.1758 0.0217
vt 0.5500 1.0000
vt 0.5250 0.5000
vt 0.5500 0.5000
vt 0.6410 0.0362
vt 0.1410 0.0362
vt 0.5750 1.0000
vt 0.5500 0.5000
vt 0.5750 0.5000
vt 0.6089 0.0558
vt 0.1089 0.0558
vt 0.6000 1.0000
vt 0.5750 0.5000
vt 0.6000 0.5000
vt 0.5803 0.0803
vt 0.0803 0.0803
vt 0.6250 1.0000
vt 0.6000 0.5000
vt 0.6250 0.5000
vt 0.5558 0.1089
vt 0.0558 0.1089
vt 0.6500 1.0000
vt 0.6250 0.5000
vt 0.6500 0.5000
vt 0.5362 0.1410
vt 0.0362 0.1410
vt 0.6750 1.0000
vt 0.6500 0.5000
vt 0.6750 0.5000
vt 0.5217 0.1758
vt 0.0217 0.1758
vt 0.7000 1.0000
vt 0.6750 0.5000
vt 0.7000 0.5000
vt 0.5130 0.2125
vt 0.0130 0.2125
vt 0.7250 1.0000
vt 0.7000 0.5000
vt 0.7250 0.5000
vt 0.5100 0.2500
vt 0.0100 0.2500
vt 0.7500 1.0000
vt 0.7250 0.5000
vt 0.7500 0.5000
vt 0.5130 0.2875
vt 0.0130 0.2875
vt 0.7750 1.0000
vt 0.7500 0.5000
vt 0.7750 0.5000
vt 0.5217 0.3242
vt 0.0217 0.3242
vt 0.8000 1.0000
vt 0.7750 0.5000
vt 0.8000 0.5000
vt 0.5362 0.3590
vt 0.0362 0.3590
vt 0.8250 1.0000
vt 0.8000 0.5000
vt 0.8250 0.5000
vt 0.5558 0.3911
vt 0.0558 0.3911
vt 0.8500 1.0000
vt 0.8250 0.5000
vt 0.8500 0.5000
vt 0.5803 0.4197
vt 0.0803 0.4197
vt 0.8750 1.0000
vt 0.8500 0.5000
vt 0.8750 0.5000
vt 0.6089 0.4442
vt 0.1089 0.4442
vt 0.9000 1.0000
vt 0.8750 0.5000
vt 0.9000 0.5000
vt 0.6410 0.4638
vt 0.1410 0.4638
vt 0.9250 1.0000
vt 0.9000 0.5000
vt 0.9250 0.5000
vt 0.6758 0.4783
vt 0.1758 0.4783
vt 0.9500 1.0000
vt 0.9250 0.5000
vt 0.9500 0.5000
vt 0.7125 0.4870
vt 0.2125 0.4870
vt 0.9750 1.0000
vt 0.9500 0.5000
vt 0.9750 0.5000
vt 1.0000 1.0000
vt 0.9750 0.5000
vt 1.0000 0.5000
vt 0.0000 1.0000
vt 0.0250 1.0000
vt 0.0500 1.0000
vt 0.0750 1.0000
vt 0.1000 1.0000
vt 0.1250 1.0000
vt 0.1500 1.0000
vt 0.1750 1.0000
vt 0.2000 1.0000
vt 0.2250 1.0000
vt 0.2500 1.0000
vt 0.2750 1.0000
vt 0.3000 1.0000
vt 0.3250 1.0000
vt 0.3500 1.0000
vt 0.3750 1.0000
vt 0.4000 1.0000
vt 0.4250 1.0000
vt 0.4500 1.0000
vt 0.4750 1.0000
vt 0.5000 1.0000
vt 0.5250 1.0000
vt 0.5500 1.0000
vt 0.5750 1.0000
vt 0.6000 1.0000
vt 0.6250 1.0000
vt 0.6500 1.0000
vt 0.6750 1.0000
vt 0.7000 1.0000
vt 0.7250 1.0000
vt 0.7500 1.0000
vt 0.7750 1.0000
vt 0.8000 1.0000
vt 0.8250 1.0000
vt 0.8500 1.0000
vt 0.8750 1.0000
vt 0.9000 1.0000
vt 0.9250 1.0000
vt 0.9500 1.0000
vt 0.9750 1.0000
vn 0.0000 -1.0000 0.0000
vn 0.0000 1.0000 0.0000
vn 0.0785 0.0000 -0.9969
vn 0.2334 0.0000 -0.9724
vn 0.3827 0.0000 -0.9239
vn 0.5225 0.0000 -0.8526
vn 0.6494 0.0000 -0.7604
vn 0.7604 0.0000 -0.6494
vn 0.8526 0.0000 -0.5225
vn 0.9239 0.0000 -0.3827
vn 0.9724 0.0000 -0.2334
vn 0.9969 0.0000 -0.0785
vn 0.9969 0.0000 0.0785
vn 0.9724 0.0000 0.2334
vn 0.9239 0.0000 0.3827
vn 0.8526 0.0000 0.5225
vn 0.7604 0.0000 0.6494
vn 0.6494 0.0000 0.7604
vn 0.5225 0.0000 0.8526
vn 0.3827 0.0000 0.9239
vn 0.2334 0.0000 0.9724
vn 0.0785 0.0000 0.9969
vn -0.0785 0.0000 0.9969
vn -0.2334 0.0000 0.9724
vn -0.3827 0.0000 0.9239
vn -0.5225 0.0000 0.8526
vn -0.6494 0.0000 0.7604
vn -0.7604 0.0000 0.6494
vn -0.8526 0.0000 0.5225
vn -0.9239 0.0000 0.3827
vn -0.9724 0.0000 0.2334
vn -0.9969 0.0000 0.0785
vn -0.9969 0.0000 -0.0785
vn -0.9724 0.0000 -0.2334
vn -0.9239 0.0000 -0.3827
vn -0.8526 0.0000 -0.5225
vn -0.7604 0.0000 -0.6494
vn -0.6494 0.0000 -0.7604
vn -0.5225 0.0000 -0.8526
vn -0.3827 0.0000 -0.9239
vn -0.2334 0.0000 -0.9724
vn -0.0785 0.0000 -0.9969
s off
f 1/1/1 3/2/1 5/3/1
f 2/4/2 6/5/2 4/6/2
f 4/7/3 5/8/3 3/9/3
f 1/1/1 5/3/1 7/10/1
f 2/4/2 8/11/2 6/5/2
f 6/12/4 7/13/4 5/14/4
f 1/1/1 7/10/1 9/15/1
f 2/4/2 10/16/2 8/11/2
f 8/17/5 9/18/5 7/19/5
f 1/1/1 9/15/1 11/20/1
f 2/4/2 12/21/2 10/16/2
f 10/22/6 11/23/6 9/24/6
f 1/1/1 11/20/1 13/25/1
f 2/4/2 14/26/2 12/21/2
f 12/27/7 13/28/7 11/29/7
f 1/1/1 13/25/1 15/30/1
f 2/4/2 16/31/2 14/26/2
f 14/32/8 15/33/8 13/34/8
f 1/1/1 15/30/1 17/35/1
f 2/4/2 18/36/2 16/31/2
f 16/37/9 17/38/9 15/39/9
f 1/1/1 17/35/1 19/40/1
f 2/4/2 20/41/2 18/36/2
f 18/42/10 19/43/10 17/44/10
f 1/1/1 19/40/1 21/45/1
f 2/4/2 22/46/2 20/41/2
f 20/47/11 21/48/11 19/49/11
f 1/1/1 21/45/1 23/50/1
f 2/4/2 24/51/2 22/46/2
f 22/52/12 23/53/12 21/54/12
f 1/1/1 23/50/1 25/55/1
f 2/4/2 26/56/2 24/51/2
f 24/57/13 25/58/13 23/59/13
f 1/1/1 25/55/1 27/60/1
f 2/4/2 28/61/2 26/56/2
f 26/62/14 27/63/14 25/64/14
f 1/1/1 27/60/1 29/65/1
f 2/4/2 30/66/2 28/61/2
f 28/67/15 29/68/15 27/69/15
f 1/1/1 29/65/1 31/70/1
f 2/4/2 32/71/2 30/66/2
f 30/72/16 31/73/16 29/74/16
f 1/1/1 31/70/1 33/75/1
f 2/4/2 34/76/2 32/71/2
f 32/77/17 33/78/17 31/79/17
f 1/1/1 33/75/1 35/80/1
f 2/4/2 36/81/2 34/76/2
f 34/82/18 35/83/18 33/84/18
f 1/1/1 35/80/1 37/85/1
f 2/4/2 38/86/2 36/81/2
f 36/87/19 37/88/19 35/89/19
f 1/1/1 37/85/1 39/90/1
f 2/4/2 40/91/2 38/86/2
f 38/92/20 39/93/20 37/94/20
f 1/1/1 39/90/1 41/95/1
f 2/4/2 42/96/2 40/91/2
f 40/97/21 41/98/21 39/99/21
f 1/1/1 41/95/1 43/100/1
f 2/4/2 44/101/2 42/96/2
f 42/102/22 43/103/22 41/104/22
f 1/1/1 43/100/1 45/105/1
f 2/4/2 46/106/2 44/101/2
f 44/107/23 45/108/23 43/109/23
f 1/1/1 45/105/1 47/110/1
f 2/4/2 48/111/2 46/106/2
f 46/112/24 47/113/24 45/114/24
f 1/1/1 47/110/1 49/115/1
f 2/4/2 50/116/2 48/111/2
f 48/117/25 49/118/25 47/119/25
f 1/1/1 49/115/1 51/120/1
f 2/4/2 52/121/2 50/116/2
f 50/122/26 51/123/26 49/124/26
f 1/1/1 51/120/1 53/125/1
f 2/4/2 54/126/2 52/121/2
f 52/127/27 53/128/27 51/129/27
f 1/1/1 53/125/1 55/130/1
f 2/4/2 56/131/2 54/126/2
f 54/132/28 55/133/28 53/134/28
f 1/1/1 55/130/1 57/135/1
f 2/4/2 58/136/2 56/131/2
f 56/137/29 57/138/29 55/139/29
f 1/1/1 57/135/1 59/140/1
f 2/4/2 60/141/2 58/136/2
f 58/142/30 59/143/30 57/144/30
f 1/1/1 59/140/1 61/145/1
f 2/4/2 62/146/2 60/141/2
f 60/147/31 61/148/31 59/149/31
f 1/1/1 61/145/1 63/150/1
f 2/4/2 64/151/2 62/146/2
f 62/152/32 63/153/32 61/154/32
f 1/1/1 63/150/1 65/155/1
f 2/4/2 66/156/2 64/151/2
f 64/157/33 65/158/33 63/159/33
f 1/1/1 65/155/1 67/160/1
f 2/4/2 68/161/2 66/156/2
f 66/162/34 67/163/34 65/164/34
f 1/1/1 67/160/1 69/165/1
f 2/4/2 70/166/2 68/161/2
f 68/167/35 69/168/35 67/169/35
f 1/1/1 69/165/1 71/170/1
f 2/4/2 72/171/2 70/166/2
f 70/172/36 71/173/36 69/174/36
f 1/1/1 71/170/1 73/175/1
f 2/4/2 74/176/2 72/171/2
f 72/177/37 73/178/37 71/179/37
f 1/1/1 73/175/1 75/180/1
f 2/4/2 76/181/2 74/176/2
f 74/182/38 75/183/38 73/184/38
f 1/1/1 75/180/1 77/185/1
f 2/4/2 78/186/2 76/181/2
f 76/187/39 77/188/39 75/189/39
f 1/1/1 77/185/1 79/190/1
f 2/4/2 80/191/2 78/186/2
f 78/192/40 79/193/40 77/194/40
f 1/1/1 79/190/1 81/195/1
f 2/4/2 82/196/2 80/191/2
f 80/197/41 81/198/41 79/199/41
f 1/1/1 81/195/1 3/2/1
f 2/4/2 4/6/2 82/196/2
f 82/200/42 3/201/42 81/202/42
f 4/7/3 6/203/3 5/8/3
f 6/12/4 8/204/4 7/13/4
f 8/17/5 10/205/5 9/18/5
f 10/22/6 12/206/6 11/23/6
f 12/27/7 14/207/7 13/28/7
f 14/32/8 16/208/8 15/33/8
f 16/37/9 18/209/9 17/38/9
f 18/42/10 20/210/10 19/43/10
f 20/47/11 22/211/11 21/48/11
f 22/52/12 24/212/12 23/53/12
f 24/57/13 26/213/13 25/58/13
f 26/62/14 28/214/14 27/63/14
f 28/67/15 30/215/15 29/68/15
f 30/72/16 32/216/16 31/73/16
f 32/77/17 34/217/17 33/78/17
f 34/82/18 36/218/18 35/83/18
f 36/87/19 38/219/19 37/88/19
f 38/92/20 40/220/20 39/93/20
f 40/97/21 42/221/21 41/98/21
f 42/102/22 44/222/22 43/103/22
f 44/107/23 46/223/23 45/108/23
f 46/112/24 48/224/24 47/113/24
f 48/117/25 50/225/25 49/118/25
f 50/122/26 52/226/26 51/123/26
f 52/127/27 54/227/27 53/128/27
f 54/132/28 56/228/28 55/133/28
f 56/137/29 58/229/29 57/138/29
f 58/142/30 60/230/30 59/143/30
f 60/147/31 62/231/31 61/148/31
f 62/152/32 64/232/32 63/153/32
f 64/157/33 66/233/33 65/158/33
f 66/162/34 68/234/34 67/163/34
f 68/167/35 70/235/35 69/168/35
f 70/172/36 72/236/36 71/173/36
f 72/177/37 74/237/37 73/178/37
f 74/182/38 76/238/38 75/183/38
f 76/187/39 78/239/39 77/188/39
f 78/192/40 80/240/40 79/193/40
f 80/197/41 82/241/41 81/198/41
f 82/200/42 4/242/42 3/201/42
